<?xml version="1.0" encoding="UTF-8"?>
<svg version="1.1" xmlns="http://www.w3.org/2000/svg" width="1024" height="1024">
<path d="M0 0 C198.99 0 397.98 0 603 0 C603 57.75 603 115.5 603 175 C532.05 175 461.1 175 388 175 C388 445.27 388 715.54 388 994 C329.59 994 271.18 994 211 994 C211 723.73 211 453.46 211 175 C141.37 175 71.74 175 0 175 C0 117.25 0 59.5 0 0 Z " fill="#5227FF" transform="translate(361,15)"/>
<path d="M0 0 C58.41 0 116.82 0 177 0 C177 328.02 177 656.04 177 994 C118.59 994 60.18 994 0 994 C0 665.98 0 337.96 0 0 Z " fill="#5227FF" transform="translate(162,15)"/>
<path d="M0 0 C62.37 0 124.74 0 189 0 C189 263.01 189 526.02 189 797 C126.63 797 64.26 797 0 797 C0 533.99 0 270.98 0 0 Z " fill="#7E6FAC" transform="translate(361,212)"/>
</svg>
